<svg xmlns="http://www.w3.org/2000/svg" style="display:none">
  <symbol id="icon-account_balance" viewBox="0 0 24 24" fill="none" stroke="currentColor" stroke-width="2" stroke-linecap="round" stroke-linejoin="round">
    <path d="m3 10 9-6 9 6"/>
    <path d="M5 10v8M9 10v8M15 10v8M19 10v8"/>
    <path d="M3 18h18"/>
  </symbol>
  <symbol id="icon-account_balance_wallet" viewBox="0 0 24 24" fill="none" stroke="currentColor" stroke-width="2" stroke-linecap="round" stroke-linejoin="round">
    <rect x="3" y="6" width="18" height="12" rx="2"/>
    <path d="M15 12h6"/>
    <circle cx="15" cy="12" r="1"/>
  </symbol>
  <symbol id="icon-add" viewBox="0 0 24 24" fill="none" stroke="currentColor" stroke-width="2" stroke-linecap="round" stroke-linejoin="round">
    <path d="M12 5v14"/>
    <path d="M5 12h14"/>
  </symbol>
  <symbol id="icon-add_circle" viewBox="0 0 24 24" fill="none" stroke="currentColor" stroke-width="2" stroke-linecap="round" stroke-linejoin="round">
    <circle cx="12" cy="12" r="9"/>
    <path d="M12 8v8"/>
    <path d="M8 12h8"/>
  </symbol>
  <symbol id="icon-add_shopping_cart" viewBox="0 0 24 24" fill="none" stroke="currentColor" stroke-width="2" stroke-linecap="round" stroke-linejoin="round">
    <path d="M3 4h2l2.5 11h10.5l2-8H7"/>
    <circle cx="10" cy="19" r="1"/>
    <circle cx="17" cy="19" r="1"/>
  </symbol>
  <symbol id="icon-admin_panel_settings" viewBox="0 0 24 24" fill="none" stroke="currentColor" stroke-width="2" stroke-linecap="round" stroke-linejoin="round">
    <circle cx="12" cy="12" r="3"/>
    <path d="M19.4 15a1.6 1.6 0 0 0 .3 1.8l.1.1a2 2 0 1 1-2.8 2.8l-.1-.1a1.6 1.6 0 0 0-1.8-.3 1.6 1.6 0 0 0-1 1.5V21a2 2 0 1 1-4 0v-.2a1.6 1.6 0 0 0-1-1.5 1.6 1.6 0 0 0-1.8.3l-.1.1a2 2 0 1 1-2.8-2.8l.1-.1a1.6 1.6 0 0 0 .3-1.8 1.6 1.6 0 0 0-1.5-1H3a2 2 0 1 1 0-4h.2a1.6 1.6 0 0 0 1.5-1 1.6 1.6 0 0 0-.3-1.8l-.1-.1a2 2 0 1 1 2.8-2.8l.1.1a1.6 1.6 0 0 0 1.8.3h.1a1.6 1.6 0 0 0 1-1.5V3a2 2 0 1 1 4 0v.2a1.6 1.6 0 0 0 1 1.5h.1a1.6 1.6 0 0 0 1.8-.3l.1-.1a2 2 0 1 1 2.8 2.8l-.1.1a1.6 1.6 0 0 0-.3 1.8v.1a1.6 1.6 0 0 0 1.5 1H21a2 2 0 1 1 0 4h-.2a1.6 1.6 0 0 0-1.5 1Z"/>
  </symbol>
  <symbol id="icon-analytics" viewBox="0 0 24 24" fill="none" stroke="currentColor" stroke-width="2" stroke-linecap="round" stroke-linejoin="round">
    <path d="M4 19h16"/>
    <path d="M7 16v-6"/>
    <path d="M12 16V8"/>
    <path d="M17 16v-3"/>
  </symbol>
  <symbol id="icon-arrow_back" viewBox="0 0 24 24" fill="none" stroke="currentColor" stroke-width="2" stroke-linecap="round" stroke-linejoin="round">
    <path d="m15 18-6-6 6-6"/>
  </symbol>
  <symbol id="icon-arrow_forward" viewBox="0 0 24 24" fill="none" stroke="currentColor" stroke-width="2" stroke-linecap="round" stroke-linejoin="round">
    <path d="m9 18 6-6-6-6"/>
  </symbol>
  <symbol id="icon-attach_money" viewBox="0 0 24 24" fill="none" stroke="currentColor" stroke-width="2" stroke-linecap="round" stroke-linejoin="round">
    <rect x="3" y="6" width="18" height="12" rx="2"/>
    <path d="M15 12h6"/>
    <circle cx="15" cy="12" r="1"/>
  </symbol>
  <symbol id="icon-auto_fix_high" viewBox="0 0 24 24" fill="none" stroke="currentColor" stroke-width="2" stroke-linecap="round" stroke-linejoin="round">
    <path d="M12 20h9"/>
    <path d="M16.5 3.5a2.1 2.1 0 0 1 3 3L8 18l-4 1 1-4 11.5-11.5Z"/>
  </symbol>
  <symbol id="icon-badge" viewBox="0 0 24 24" fill="none" stroke="currentColor" stroke-width="2" stroke-linecap="round" stroke-linejoin="round">
    <path d="M20 12 12 20 4 12V4h8l8 8Z"/>
    <circle cx="9" cy="9" r="1"/>
  </symbol>
  <symbol id="icon-bakery_dining" viewBox="0 0 24 24" fill="none" stroke="currentColor" stroke-width="2" stroke-linecap="round" stroke-linejoin="round">
    <circle cx="12" cy="12" r="9"/>
    <path d="M8 12h8"/>
  </symbol>
  <symbol id="icon-bar_chart" viewBox="0 0 24 24" fill="none" stroke="currentColor" stroke-width="2" stroke-linecap="round" stroke-linejoin="round">
    <path d="M4 19h16"/>
    <path d="M7 16v-6"/>
    <path d="M12 16V8"/>
    <path d="M17 16v-3"/>
  </symbol>
  <symbol id="icon-block" viewBox="0 0 24 24" fill="none" stroke="currentColor" stroke-width="2" stroke-linecap="round" stroke-linejoin="round">
    <rect x="5" y="11" width="14" height="10" rx="2"/>
    <path d="M8 11V8a4 4 0 1 1 8 0v3"/>
  </symbol>
  <symbol id="icon-bolt" viewBox="0 0 24 24" fill="none" stroke="currentColor" stroke-width="2" stroke-linecap="round" stroke-linejoin="round">
    <circle cx="12" cy="12" r="9"/>
    <path d="M8 12h8"/>
  </symbol>
  <symbol id="icon-build" viewBox="0 0 24 24" fill="none" stroke="currentColor" stroke-width="2" stroke-linecap="round" stroke-linejoin="round">
    <circle cx="12" cy="12" r="3"/>
    <path d="M19.4 15a1.6 1.6 0 0 0 .3 1.8l.1.1a2 2 0 1 1-2.8 2.8l-.1-.1a1.6 1.6 0 0 0-1.8-.3 1.6 1.6 0 0 0-1 1.5V21a2 2 0 1 1-4 0v-.2a1.6 1.6 0 0 0-1-1.5 1.6 1.6 0 0 0-1.8.3l-.1.1a2 2 0 1 1-2.8-2.8l.1-.1a1.6 1.6 0 0 0 .3-1.8 1.6 1.6 0 0 0-1.5-1H3a2 2 0 1 1 0-4h.2a1.6 1.6 0 0 0 1.5-1 1.6 1.6 0 0 0-.3-1.8l-.1-.1a2 2 0 1 1 2.8-2.8l.1.1a1.6 1.6 0 0 0 1.8.3h.1a1.6 1.6 0 0 0 1-1.5V3a2 2 0 1 1 4 0v.2a1.6 1.6 0 0 0 1 1.5h.1a1.6 1.6 0 0 0 1.8-.3l.1-.1a2 2 0 1 1 2.8 2.8l-.1.1a1.6 1.6 0 0 0-.3 1.8v.1a1.6 1.6 0 0 0 1.5 1H21a2 2 0 1 1 0 4h-.2a1.6 1.6 0 0 0-1.5 1Z"/>
  </symbol>
  <symbol id="icon-business" viewBox="0 0 24 24" fill="none" stroke="currentColor" stroke-width="2" stroke-linecap="round" stroke-linejoin="round">
    <circle cx="12" cy="7" r="4"/>
    <path d="M4 21a8 8 0 0 1 16 0"/>
  </symbol>
  <symbol id="icon-cached" viewBox="0 0 24 24" fill="none" stroke="currentColor" stroke-width="2" stroke-linecap="round" stroke-linejoin="round">
    <circle cx="12" cy="12" r="3"/>
    <path d="M19.4 15a1.6 1.6 0 0 0 .3 1.8l.1.1a2 2 0 1 1-2.8 2.8l-.1-.1a1.6 1.6 0 0 0-1.8-.3 1.6 1.6 0 0 0-1 1.5V21a2 2 0 1 1-4 0v-.2a1.6 1.6 0 0 0-1-1.5 1.6 1.6 0 0 0-1.8.3l-.1.1a2 2 0 1 1-2.8-2.8l.1-.1a1.6 1.6 0 0 0 .3-1.8 1.6 1.6 0 0 0-1.5-1H3a2 2 0 1 1 0-4h.2a1.6 1.6 0 0 0 1.5-1 1.6 1.6 0 0 0-.3-1.8l-.1-.1a2 2 0 1 1 2.8-2.8l.1.1a1.6 1.6 0 0 0 1.8.3h.1a1.6 1.6 0 0 0 1-1.5V3a2 2 0 1 1 4 0v.2a1.6 1.6 0 0 0 1 1.5h.1a1.6 1.6 0 0 0 1.8-.3l.1-.1a2 2 0 1 1 2.8 2.8l-.1.1a1.6 1.6 0 0 0-.3 1.8v.1a1.6 1.6 0 0 0 1.5 1H21a2 2 0 1 1 0 4h-.2a1.6 1.6 0 0 0-1.5 1Z"/>
  </symbol>
  <symbol id="icon-cake" viewBox="0 0 24 24" fill="none" stroke="currentColor" stroke-width="2" stroke-linecap="round" stroke-linejoin="round">
    <circle cx="12" cy="12" r="9"/>
    <path d="M8 12h8"/>
  </symbol>
  <symbol id="icon-calendar_today" viewBox="0 0 24 24" fill="none" stroke="currentColor" stroke-width="2" stroke-linecap="round" stroke-linejoin="round">
    <rect x="3" y="5" width="18" height="16" rx="2"/>
    <path d="M16 3v4M8 3v4M3 10h18"/>
  </symbol>
  <symbol id="icon-campaign" viewBox="0 0 24 24" fill="none" stroke="currentColor" stroke-width="2" stroke-linecap="round" stroke-linejoin="round">
    <path d="M15 17H9a4 4 0 0 1-4-4v-2a7 7 0 1 1 14 0v2a4 4 0 0 1-4 4Z"/>
    <path d="M10 21h4"/>
  </symbol>
  <symbol id="icon-cancel" viewBox="0 0 24 24" fill="none" stroke="currentColor" stroke-width="2" stroke-linecap="round" stroke-linejoin="round">
    <circle cx="12" cy="12" r="9"/>
    <path d="M15 9 9 15"/>
    <path d="m9 9 6 6"/>
  </symbol>
  <symbol id="icon-category" viewBox="0 0 24 24" fill="none" stroke="currentColor" stroke-width="2" stroke-linecap="round" stroke-linejoin="round">
    <rect x="3" y="3" width="8" height="8" rx="1"/>
    <rect x="13" y="3" width="8" height="8" rx="1"/>
    <rect x="3" y="13" width="8" height="8" rx="1"/>
    <rect x="13" y="13" width="8" height="8" rx="1"/>
  </symbol>
  <symbol id="icon-check" viewBox="0 0 24 24" fill="none" stroke="currentColor" stroke-width="2" stroke-linecap="round" stroke-linejoin="round">
    <path d="m20 6-11 11-5-5"/>
  </symbol>
  <symbol id="icon-check_circle" viewBox="0 0 24 24" fill="none" stroke="currentColor" stroke-width="2" stroke-linecap="round" stroke-linejoin="round">
    <circle cx="12" cy="12" r="9"/>
    <path d="m9 12 2 2 4-4"/>
  </symbol>
  <symbol id="icon-close" viewBox="0 0 24 24" fill="none" stroke="currentColor" stroke-width="2" stroke-linecap="round" stroke-linejoin="round">
    <path d="M18 6 6 18"/>
    <path d="m6 6 12 12"/>
  </symbol>
  <symbol id="icon-cloud_upload" viewBox="0 0 24 24" fill="none" stroke="currentColor" stroke-width="2" stroke-linecap="round" stroke-linejoin="round">
    <path d="M20 17.5a4.5 4.5 0 0 0-.8-8.9A6.5 6.5 0 1 0 5.5 17.5H20Z"/>
    <path d="M12 17V9"/>
    <path d="m9 12 3-3 3 3"/>
  </symbol>
  <symbol id="icon-coffee" viewBox="0 0 24 24" fill="none" stroke="currentColor" stroke-width="2" stroke-linecap="round" stroke-linejoin="round">
    <path d="M5 8h11v7a5 5 0 0 1-10 0V8Z"/>
    <path d="M16 9h2a2 2 0 0 1 0 4h-2"/>
    <path d="M7 3h7"/>
  </symbol>
  <symbol id="icon-computer" viewBox="0 0 24 24" fill="none" stroke="currentColor" stroke-width="2" stroke-linecap="round" stroke-linejoin="round">
    <rect x="3" y="4" width="18" height="12" rx="2"/>
    <path d="M8 20h8M12 16v4"/>
  </symbol>
  <symbol id="icon-confirmation_number" viewBox="0 0 24 24" fill="none" stroke="currentColor" stroke-width="2" stroke-linecap="round" stroke-linejoin="round">
    <path d="M20 12 12 20 4 12V4h8l8 8Z"/>
    <circle cx="9" cy="9" r="1"/>
  </symbol>
  <symbol id="icon-contact_phone" viewBox="0 0 24 24" fill="none" stroke="currentColor" stroke-width="2" stroke-linecap="round" stroke-linejoin="round">
    <path d="M22 16.9v3a2 2 0 0 1-2.2 2A19 19 0 0 1 3.1 5.2 2 2 0 0 1 5.1 3h3a2 2 0 0 1 2 1.7c.1.9.3 1.8.6 2.6a2 2 0 0 1-.4 2.1L9.1 10.6a16 16 0 0 0 4.3 4.3l1.2-1.2a2 2 0 0 1 2.1-.4c.8.3 1.7.5 2.6.6A2 2 0 0 1 22 16.9Z"/>
  </symbol>
  <symbol id="icon-content_copy" viewBox="0 0 24 24" fill="none" stroke="currentColor" stroke-width="2" stroke-linecap="round" stroke-linejoin="round">
    <rect x="9" y="9" width="11" height="11" rx="2"/>
    <rect x="4" y="4" width="11" height="11" rx="2"/>
  </symbol>
  <symbol id="icon-content_paste" viewBox="0 0 24 24" fill="none" stroke="currentColor" stroke-width="2" stroke-linecap="round" stroke-linejoin="round">
    <rect x="6" y="4" width="12" height="16" rx="2"/>
    <path d="M9 4h6v3H9z"/>
  </symbol>
  <symbol id="icon-credit_card" viewBox="0 0 24 24" fill="none" stroke="currentColor" stroke-width="2" stroke-linecap="round" stroke-linejoin="round">
    <rect x="3" y="5" width="18" height="14" rx="2"/>
    <path d="M3 10h18"/>
  </symbol>
  <symbol id="icon-currency_exchange" viewBox="0 0 24 24" fill="none" stroke="currentColor" stroke-width="2" stroke-linecap="round" stroke-linejoin="round">
    <path d="M4 19h16"/>
    <path d="M7 16v-6"/>
    <path d="M12 16V8"/>
    <path d="M17 16v-3"/>
  </symbol>
  <symbol id="icon-dark_mode" viewBox="0 0 24 24" fill="none" stroke="currentColor" stroke-width="2" stroke-linecap="round" stroke-linejoin="round">
    <path d="M21 12.8A9 9 0 1 1 11.2 3 7 7 0 0 0 21 12.8Z"/>
  </symbol>
  <symbol id="icon-dashboard" viewBox="0 0 24 24" fill="none" stroke="currentColor" stroke-width="2" stroke-linecap="round" stroke-linejoin="round">
    <path d="M3 13a9 9 0 1 1 18 0"/>
    <path d="M12 13 16 9"/>
    <circle cx="12" cy="13" r="1"/>
  </symbol>
  <symbol id="icon-delete" viewBox="0 0 24 24" fill="none" stroke="currentColor" stroke-width="2" stroke-linecap="round" stroke-linejoin="round">
    <path d="M3 6h18"/>
    <path d="M8 6V4h8v2"/>
    <rect x="6" y="6" width="12" height="14" rx="2"/>
    <path d="M10 11v6M14 11v6"/>
  </symbol>
  <symbol id="icon-delete_sweep" viewBox="0 0 24 24" fill="none" stroke="currentColor" stroke-width="2" stroke-linecap="round" stroke-linejoin="round">
    <path d="M3 6h18"/>
    <path d="M8 6V4h8v2"/>
    <rect x="6" y="6" width="12" height="14" rx="2"/>
    <path d="M10 11v6M14 11v6"/>
  </symbol>
  <symbol id="icon-description" viewBox="0 0 24 24" fill="none" stroke="currentColor" stroke-width="2" stroke-linecap="round" stroke-linejoin="round">
    <path d="M14 3H7a2 2 0 0 0-2 2v14a2 2 0 0 0 2 2h10a2 2 0 0 0 2-2V8Z"/>
    <path d="M14 3v5h5"/>
  </symbol>
  <symbol id="icon-devices" viewBox="0 0 24 24" fill="none" stroke="currentColor" stroke-width="2" stroke-linecap="round" stroke-linejoin="round">
    <rect x="3" y="4" width="18" height="12" rx="2"/>
    <path d="M8 20h8M12 16v4"/>
  </symbol>
  <symbol id="icon-dinner_dining" viewBox="0 0 24 24" fill="none" stroke="currentColor" stroke-width="2" stroke-linecap="round" stroke-linejoin="round">
    <circle cx="12" cy="12" r="9"/>
    <path d="M8 12h8"/>
  </symbol>
  <symbol id="icon-done" viewBox="0 0 24 24" fill="none" stroke="currentColor" stroke-width="2" stroke-linecap="round" stroke-linejoin="round">
    <path d="m20 6-11 11-5-5"/>
  </symbol>
  <symbol id="icon-done_all" viewBox="0 0 24 24" fill="none" stroke="currentColor" stroke-width="2" stroke-linecap="round" stroke-linejoin="round">
    <path d="m20 6-11 11-5-5"/>
  </symbol>
  <symbol id="icon-download" viewBox="0 0 24 24" fill="none" stroke="currentColor" stroke-width="2" stroke-linecap="round" stroke-linejoin="round">
    <path d="M12 5v11"/>
    <path d="m7 11 5 5 5-5"/>
    <path d="M4 19h16"/>
  </symbol>
  <symbol id="icon-eco" viewBox="0 0 24 24" fill="none" stroke="currentColor" stroke-width="2" stroke-linecap="round" stroke-linejoin="round">
    <path d="M5 13c0-6 5-9 14-10 0 9-3 14-10 14-2.5 0-4-1.5-4-4Z"/>
    <path d="M8 16c2-2 5-5 9-7"/>
  </symbol>
  <symbol id="icon-edit" viewBox="0 0 24 24" fill="none" stroke="currentColor" stroke-width="2" stroke-linecap="round" stroke-linejoin="round">
    <path d="M12 20h9"/>
    <path d="M16.5 3.5a2.1 2.1 0 0 1 3 3L8 18l-4 1 1-4 11.5-11.5Z"/>
  </symbol>
  <symbol id="icon-egg_alt" viewBox="0 0 24 24" fill="none" stroke="currentColor" stroke-width="2" stroke-linecap="round" stroke-linejoin="round">
    <circle cx="12" cy="12" r="9"/>
    <path d="M8 12h8"/>
  </symbol>
  <symbol id="icon-email" viewBox="0 0 24 24" fill="none" stroke="currentColor" stroke-width="2" stroke-linecap="round" stroke-linejoin="round">
    <rect x="3" y="5" width="18" height="14" rx="2"/>
    <path d="m3 7 9 6 9-6"/>
  </symbol>
  <symbol id="icon-error" viewBox="0 0 24 24" fill="none" stroke="currentColor" stroke-width="2" stroke-linecap="round" stroke-linejoin="round">
    <circle cx="12" cy="12" r="9"/>
    <path d="M15 9 9 15"/>
    <path d="m9 9 6 6"/>
  </symbol>
  <symbol id="icon-error_outline" viewBox="0 0 24 24" fill="none" stroke="currentColor" stroke-width="2" stroke-linecap="round" stroke-linejoin="round">
    <circle cx="12" cy="12" r="9"/>
    <path d="M8 12h8"/>
  </symbol>
  <symbol id="icon-expand_more" viewBox="0 0 24 24" fill="none" stroke="currentColor" stroke-width="2" stroke-linecap="round" stroke-linejoin="round">
    <path d="m6 9 6 6 6-6"/>
  </symbol>
  <symbol id="icon-fastfood" viewBox="0 0 24 24" fill="none" stroke="currentColor" stroke-width="2" stroke-linecap="round" stroke-linejoin="round">
    <circle cx="12" cy="12" r="9"/>
    <path d="M8 12h8"/>
  </symbol>
  <symbol id="icon-file_upload" viewBox="0 0 24 24" fill="none" stroke="currentColor" stroke-width="2" stroke-linecap="round" stroke-linejoin="round">
    <path d="M12 16V5"/>
    <path d="m7 10 5-5 5 5"/>
    <path d="M4 19h16"/>
  </symbol>
  <symbol id="icon-folder_managed" viewBox="0 0 24 24" fill="none" stroke="currentColor" stroke-width="2" stroke-linecap="round" stroke-linejoin="round">
    <circle cx="12" cy="12" r="9"/>
    <path d="M8 12h8"/>
  </symbol>
  <symbol id="icon-format_list_bulleted" viewBox="0 0 24 24" fill="none" stroke="currentColor" stroke-width="2" stroke-linecap="round" stroke-linejoin="round">
    <circle cx="12" cy="12" r="9"/>
    <path d="M8 12h8"/>
  </symbol>
  <symbol id="icon-gavel" viewBox="0 0 24 24" fill="none" stroke="currentColor" stroke-width="2" stroke-linecap="round" stroke-linejoin="round">
    <path d="M14 4 20 10"/>
    <path d="m13 5-8 8"/>
    <rect x="3" y="12" width="6" height="4" rx="1"/>
    <rect x="15" y="4" width="6" height="4" rx="1"/>
    <path d="M11 21h10"/>
  </symbol>
  <symbol id="icon-gpp_bad" viewBox="0 0 24 24" fill="none" stroke="currentColor" stroke-width="2" stroke-linecap="round" stroke-linejoin="round">
    <circle cx="12" cy="12" r="9"/>
    <path d="M15 9 9 15"/>
    <path d="m9 9 6 6"/>
  </symbol>
  <symbol id="icon-grid_on" viewBox="0 0 24 24" fill="none" stroke="currentColor" stroke-width="2" stroke-linecap="round" stroke-linejoin="round">
    <rect x="3" y="3" width="8" height="8" rx="1"/>
    <rect x="13" y="3" width="8" height="8" rx="1"/>
    <rect x="3" y="13" width="8" height="8" rx="1"/>
    <rect x="13" y="13" width="8" height="8" rx="1"/>
  </symbol>
  <symbol id="icon-grid_view" viewBox="0 0 24 24" fill="none" stroke="currentColor" stroke-width="2" stroke-linecap="round" stroke-linejoin="round">
    <rect x="3" y="3" width="8" height="8" rx="1"/>
    <rect x="13" y="3" width="8" height="8" rx="1"/>
    <rect x="3" y="13" width="8" height="8" rx="1"/>
    <rect x="13" y="13" width="8" height="8" rx="1"/>
  </symbol>
  <symbol id="icon-group" viewBox="0 0 24 24" fill="none" stroke="currentColor" stroke-width="2" stroke-linecap="round" stroke-linejoin="round">
    <circle cx="9" cy="8" r="3"/>
    <circle cx="17" cy="9" r="2.5"/>
    <path d="M3 21a6 6 0 0 1 12 0"/>
    <path d="M14 21a5 5 0 0 1 7 0"/>
  </symbol>
  <symbol id="icon-group_add" viewBox="0 0 24 24" fill="none" stroke="currentColor" stroke-width="2" stroke-linecap="round" stroke-linejoin="round">
    <circle cx="12" cy="12" r="9"/>
    <path d="M12 8v8"/>
    <path d="M8 12h8"/>
  </symbol>
  <symbol id="icon-groups" viewBox="0 0 24 24" fill="none" stroke="currentColor" stroke-width="2" stroke-linecap="round" stroke-linejoin="round">
    <circle cx="9" cy="8" r="3"/>
    <circle cx="17" cy="9" r="2.5"/>
    <path d="M3 21a6 6 0 0 1 12 0"/>
    <path d="M14 21a5 5 0 0 1 7 0"/>
  </symbol>
  <symbol id="icon-hourglass_empty" viewBox="0 0 24 24" fill="none" stroke="currentColor" stroke-width="2" stroke-linecap="round" stroke-linejoin="round">
    <path d="M6 3h12"/>
    <path d="M6 21h12"/>
    <path d="M8 3c0 4 4 5 4 9s-4 5-4 9"/>
    <path d="M16 3c0 4-4 5-4 9s4 5 4 9"/>
  </symbol>
  <symbol id="icon-image" viewBox="0 0 24 24" fill="none" stroke="currentColor" stroke-width="2" stroke-linecap="round" stroke-linejoin="round">
    <rect x="3" y="5" width="18" height="14" rx="2"/>
    <circle cx="8.5" cy="10" r="1.5"/>
    <path d="m21 15-5-5-7 7"/>
  </symbol>
  <symbol id="icon-inbox" viewBox="0 0 24 24" fill="none" stroke="currentColor" stroke-width="2" stroke-linecap="round" stroke-linejoin="round">
    <circle cx="12" cy="12" r="9"/>
    <path d="M8 12h8"/>
  </symbol>
  <symbol id="icon-info" viewBox="0 0 24 24" fill="none" stroke="currentColor" stroke-width="2" stroke-linecap="round" stroke-linejoin="round">
    <circle cx="12" cy="12" r="9"/>
    <path d="M12 10v6"/>
    <path d="M12 7h.01"/>
  </symbol>
  <symbol id="icon-inventory_2" viewBox="0 0 24 24" fill="none" stroke="currentColor" stroke-width="2" stroke-linecap="round" stroke-linejoin="round">
    <path d="M3 7a2 2 0 0 1 2-2h5l2 2h7a2 2 0 0 1 2 2v8a2 2 0 0 1-2 2H5a2 2 0 0 1-2-2V7Z"/>
  </symbol>
  <symbol id="icon-language" viewBox="0 0 24 24" fill="none" stroke="currentColor" stroke-width="2" stroke-linecap="round" stroke-linejoin="round">
    <circle cx="12" cy="12" r="9"/>
    <path d="M3 12h18"/>
    <path d="M12 3a15 15 0 0 1 0 18"/>
    <path d="M12 3a15 15 0 0 0 0 18"/>
  </symbol>
  <symbol id="icon-light_mode" viewBox="0 0 24 24" fill="none" stroke="currentColor" stroke-width="2" stroke-linecap="round" stroke-linejoin="round">
    <circle cx="12" cy="12" r="4"/>
    <path d="M12 2v2M12 20v2M4.9 4.9l1.4 1.4M17.7 17.7l1.4 1.4M2 12h2M20 12h2M4.9 19.1l1.4-1.4M17.7 6.3l1.4-1.4"/>
  </symbol>
  <symbol id="icon-link" viewBox="0 0 24 24" fill="none" stroke="currentColor" stroke-width="2" stroke-linecap="round" stroke-linejoin="round">
    <path d="M10 13a5 5 0 0 0 7 0l2-2a5 5 0 0 0-7-7l-1.5 1.5"/>
    <path d="M14 11a5 5 0 0 0-7 0l-2 2a5 5 0 0 0 7 7L13.5 19"/>
  </symbol>
  <symbol id="icon-link_off" viewBox="0 0 24 24" fill="none" stroke="currentColor" stroke-width="2" stroke-linecap="round" stroke-linejoin="round">
    <path d="M10 13a5 5 0 0 0 7 0l2-2a5 5 0 0 0-7-7l-1.5 1.5"/>
    <path d="M14 11a5 5 0 0 0-7 0l-2 2a5 5 0 0 0 7 7L13.5 19"/>
  </symbol>
  <symbol id="icon-local_bar" viewBox="0 0 24 24" fill="none" stroke="currentColor" stroke-width="2" stroke-linecap="round" stroke-linejoin="round">
    <path d="M5 8h11v7a5 5 0 0 1-10 0V8Z"/>
    <path d="M16 9h2a2 2 0 0 1 0 4h-2"/>
    <path d="M7 3h7"/>
  </symbol>
  <symbol id="icon-local_fire_department" viewBox="0 0 24 24" fill="none" stroke="currentColor" stroke-width="2" stroke-linecap="round" stroke-linejoin="round">
    <path d="M12 3s4 3 4 7a4 4 0 1 1-8 0c0-2 1-3 2-4 .5 1.5 2 2 2 2Z"/>
  </symbol>
  <symbol id="icon-local_pizza" viewBox="0 0 24 24" fill="none" stroke="currentColor" stroke-width="2" stroke-linecap="round" stroke-linejoin="round">
    <path d="M4 4c5-2 11-2 16 0L12 21 4 4Z"/>
    <circle cx="10" cy="10" r="1"/>
    <circle cx="14" cy="11" r="1"/>
    <circle cx="12" cy="15" r="1"/>
  </symbol>
  <symbol id="icon-location_city" viewBox="0 0 24 24" fill="none" stroke="currentColor" stroke-width="2" stroke-linecap="round" stroke-linejoin="round">
    <circle cx="12" cy="12" r="9"/>
    <path d="M8 12h8"/>
  </symbol>
  <symbol id="icon-location_on" viewBox="0 0 24 24" fill="none" stroke="currentColor" stroke-width="2" stroke-linecap="round" stroke-linejoin="round">
    <path d="M12 21s7-5.5 7-11a7 7 0 1 0-14 0c0 5.5 7 11 7 11Z"/>
    <circle cx="12" cy="10" r="2.5"/>
  </symbol>
  <symbol id="icon-lock" viewBox="0 0 24 24" fill="none" stroke="currentColor" stroke-width="2" stroke-linecap="round" stroke-linejoin="round">
    <rect x="5" y="11" width="14" height="10" rx="2"/>
    <path d="M8 11V8a4 4 0 1 1 8 0v3"/>
  </symbol>
  <symbol id="icon-lock_reset" viewBox="0 0 24 24" fill="none" stroke="currentColor" stroke-width="2" stroke-linecap="round" stroke-linejoin="round">
    <rect x="5" y="11" width="14" height="10" rx="2"/>
    <path d="M8 11V8a4 4 0 1 1 8 0v3"/>
  </symbol>
  <symbol id="icon-login" viewBox="0 0 24 24" fill="none" stroke="currentColor" stroke-width="2" stroke-linecap="round" stroke-linejoin="round">
    <path d="M15 3h4a2 2 0 0 1 2 2v14a2 2 0 0 1-2 2h-4"/>
    <path d="M8 17l-5-5 5-5"/>
    <path d="M3 12h12"/>
  </symbol>
  <symbol id="icon-logout" viewBox="0 0 24 24" fill="none" stroke="currentColor" stroke-width="2" stroke-linecap="round" stroke-linejoin="round">
    <path d="M9 21H5a2 2 0 0 1-2-2V5a2 2 0 0 1 2-2h4"/>
    <path d="M16 17l5-5-5-5"/>
    <path d="M21 12H9"/>
  </symbol>
  <symbol id="icon-lunch_dining" viewBox="0 0 24 24" fill="none" stroke="currentColor" stroke-width="2" stroke-linecap="round" stroke-linejoin="round">
    <circle cx="12" cy="12" r="9"/>
    <path d="M8 12h8"/>
  </symbol>
  <symbol id="icon-mail" viewBox="0 0 24 24" fill="none" stroke="currentColor" stroke-width="2" stroke-linecap="round" stroke-linejoin="round">
    <rect x="3" y="5" width="18" height="14" rx="2"/>
    <path d="m3 7 9 6 9-6"/>
  </symbol>
  <symbol id="icon-mark_email_read" viewBox="0 0 24 24" fill="none" stroke="currentColor" stroke-width="2" stroke-linecap="round" stroke-linejoin="round">
    <rect x="3" y="5" width="18" height="14" rx="2"/>
    <path d="m3 7 9 6 9-6"/>
  </symbol>
  <symbol id="icon-menu" viewBox="0 0 24 24" fill="none" stroke="currentColor" stroke-width="2" stroke-linecap="round" stroke-linejoin="round">
    <path d="M4 6h16"/>
    <path d="M4 12h16"/>
    <path d="M4 18h16"/>
  </symbol>
  <symbol id="icon-monetization_on" viewBox="0 0 24 24" fill="none" stroke="currentColor" stroke-width="2" stroke-linecap="round" stroke-linejoin="round">
    <rect x="3" y="6" width="18" height="12" rx="2"/>
    <path d="M15 12h6"/>
    <circle cx="15" cy="12" r="1"/>
  </symbol>
  <symbol id="icon-my_location" viewBox="0 0 24 24" fill="none" stroke="currentColor" stroke-width="2" stroke-linecap="round" stroke-linejoin="round">
    <path d="M12 21s7-5.5 7-11a7 7 0 1 0-14 0c0 5.5 7 11 7 11Z"/>
    <circle cx="12" cy="10" r="2.5"/>
  </symbol>
  <symbol id="icon-nightlife" viewBox="0 0 24 24" fill="none" stroke="currentColor" stroke-width="2" stroke-linecap="round" stroke-linejoin="round">
    <path d="M5 8h11v7a5 5 0 0 1-10 0V8Z"/>
    <path d="M16 9h2a2 2 0 0 1 0 4h-2"/>
    <path d="M7 3h7"/>
  </symbol>
  <symbol id="icon-notifications" viewBox="0 0 24 24" fill="none" stroke="currentColor" stroke-width="2" stroke-linecap="round" stroke-linejoin="round">
    <path d="M15 17H9a4 4 0 0 1-4-4v-2a7 7 0 1 1 14 0v2a4 4 0 0 1-4 4Z"/>
    <path d="M10 21h4"/>
  </symbol>
  <symbol id="icon-notifications_active" viewBox="0 0 24 24" fill="none" stroke="currentColor" stroke-width="2" stroke-linecap="round" stroke-linejoin="round">
    <path d="M15 17H9a4 4 0 0 1-4-4v-2a7 7 0 1 1 14 0v2a4 4 0 0 1-4 4Z"/>
    <path d="M10 21h4"/>
  </symbol>
  <symbol id="icon-notifications_off" viewBox="0 0 24 24" fill="none" stroke="currentColor" stroke-width="2" stroke-linecap="round" stroke-linejoin="round">
    <path d="M15 17H9a4 4 0 0 1-4-4v-2a7 7 0 1 1 14 0v2a4 4 0 0 1-4 4Z"/>
    <path d="M10 21h4"/>
  </symbol>
  <symbol id="icon-open_in_new" viewBox="0 0 24 24" fill="none" stroke="currentColor" stroke-width="2" stroke-linecap="round" stroke-linejoin="round">
    <circle cx="12" cy="12" r="9"/>
    <path d="M8 12h8"/>
  </symbol>
  <symbol id="icon-outdoor_grill" viewBox="0 0 24 24" fill="none" stroke="currentColor" stroke-width="2" stroke-linecap="round" stroke-linejoin="round">
    <path d="M4 8h16"/>
    <path d="M6 8v6a6 6 0 0 0 12 0V8"/>
    <path d="M8 21h8"/>
  </symbol>
  <symbol id="icon-palette" viewBox="0 0 24 24" fill="none" stroke="currentColor" stroke-width="2" stroke-linecap="round" stroke-linejoin="round">
    <circle cx="12" cy="12" r="9"/>
    <path d="M8 12h8"/>
  </symbol>
  <symbol id="icon-panorama" viewBox="0 0 24 24" fill="none" stroke="currentColor" stroke-width="2" stroke-linecap="round" stroke-linejoin="round">
    <rect x="3" y="5" width="18" height="14" rx="2"/>
    <circle cx="8.5" cy="10" r="1.5"/>
    <path d="m21 15-5-5-7 7"/>
  </symbol>
  <symbol id="icon-payments" viewBox="0 0 24 24" fill="none" stroke="currentColor" stroke-width="2" stroke-linecap="round" stroke-linejoin="round">
    <rect x="3" y="6" width="18" height="12" rx="2"/>
    <path d="M15 12h6"/>
    <circle cx="15" cy="12" r="1"/>
  </symbol>
  <symbol id="icon-person" viewBox="0 0 24 24" fill="none" stroke="currentColor" stroke-width="2" stroke-linecap="round" stroke-linejoin="round">
    <circle cx="12" cy="7" r="4"/>
    <path d="M4 21a8 8 0 0 1 16 0"/>
  </symbol>
  <symbol id="icon-person_add" viewBox="0 0 24 24" fill="none" stroke="currentColor" stroke-width="2" stroke-linecap="round" stroke-linejoin="round">
    <circle cx="12" cy="12" r="9"/>
    <path d="M12 8v8"/>
    <path d="M8 12h8"/>
  </symbol>
  <symbol id="icon-phone" viewBox="0 0 24 24" fill="none" stroke="currentColor" stroke-width="2" stroke-linecap="round" stroke-linejoin="round">
    <path d="M22 16.9v3a2 2 0 0 1-2.2 2A19 19 0 0 1 3.1 5.2 2 2 0 0 1 5.1 3h3a2 2 0 0 1 2 1.7c.1.9.3 1.8.6 2.6a2 2 0 0 1-.4 2.1L9.1 10.6a16 16 0 0 0 4.3 4.3l1.2-1.2a2 2 0 0 1 2.1-.4c.8.3 1.7.5 2.6.6A2 2 0 0 1 22 16.9Z"/>
  </symbol>
  <symbol id="icon-phone_android" viewBox="0 0 24 24" fill="none" stroke="currentColor" stroke-width="2" stroke-linecap="round" stroke-linejoin="round">
    <path d="M22 16.9v3a2 2 0 0 1-2.2 2A19 19 0 0 1 3.1 5.2 2 2 0 0 1 5.1 3h3a2 2 0 0 1 2 1.7c.1.9.3 1.8.6 2.6a2 2 0 0 1-.4 2.1L9.1 10.6a16 16 0 0 0 4.3 4.3l1.2-1.2a2 2 0 0 1 2.1-.4c.8.3 1.7.5 2.6.6A2 2 0 0 1 22 16.9Z"/>
  </symbol>
  <symbol id="icon-phone_iphone" viewBox="0 0 24 24" fill="none" stroke="currentColor" stroke-width="2" stroke-linecap="round" stroke-linejoin="round">
    <path d="M22 16.9v3a2 2 0 0 1-2.2 2A19 19 0 0 1 3.1 5.2 2 2 0 0 1 5.1 3h3a2 2 0 0 1 2 1.7c.1.9.3 1.8.6 2.6a2 2 0 0 1-.4 2.1L9.1 10.6a16 16 0 0 0 4.3 4.3l1.2-1.2a2 2 0 0 1 2.1-.4c.8.3 1.7.5 2.6.6A2 2 0 0 1 22 16.9Z"/>
  </symbol>
  <symbol id="icon-picture_as_pdf" viewBox="0 0 24 24" fill="none" stroke="currentColor" stroke-width="2" stroke-linecap="round" stroke-linejoin="round">
    <path d="M14 3H7a2 2 0 0 0-2 2v14a2 2 0 0 0 2 2h10a2 2 0 0 0 2-2V8Z"/>
    <path d="M14 3v5h5"/>
  </symbol>
  <symbol id="icon-print" viewBox="0 0 24 24" fill="none" stroke="currentColor" stroke-width="2" stroke-linecap="round" stroke-linejoin="round">
    <circle cx="12" cy="12" r="9"/>
    <path d="M8 12h8"/>
  </symbol>
  <symbol id="icon-progress_activity" viewBox="0 0 24 24" fill="none" stroke="currentColor" stroke-width="2" stroke-linecap="round" stroke-linejoin="round">
    <circle cx="12" cy="12" r="9"/>
    <path d="M8 12h8"/>
  </symbol>
  <symbol id="icon-psychology" viewBox="0 0 24 24" fill="none" stroke="currentColor" stroke-width="2" stroke-linecap="round" stroke-linejoin="round">
    <path d="M8 8a3 3 0 0 1 6 0v8a3 3 0 0 1-6 0"/>
    <path d="M10 6a3 3 0 0 0-3 3v6a3 3 0 0 0 3 3"/>
    <path d="M14 6a3 3 0 0 1 3 3v6a3 3 0 0 1-3 3"/>
  </symbol>
  <symbol id="icon-public" viewBox="0 0 24 24" fill="none" stroke="currentColor" stroke-width="2" stroke-linecap="round" stroke-linejoin="round">
    <circle cx="12" cy="12" r="9"/>
    <path d="M3 12h18"/>
    <path d="M12 3a15 15 0 0 1 0 18"/>
    <path d="M12 3a15 15 0 0 0 0 18"/>
  </symbol>
  <symbol id="icon-qr_code" viewBox="0 0 24 24" fill="none" stroke="currentColor" stroke-width="2" stroke-linecap="round" stroke-linejoin="round">
    <rect x="3" y="3" width="7" height="7" rx="1"/>
    <rect x="14" y="3" width="7" height="7" rx="1"/>
    <rect x="3" y="14" width="7" height="7" rx="1"/>
    <path d="M15 15h2v2h-2zM19 15h2v2h-2zM15 19h2v2h-2zM19 19h2v2h-2z"/>
  </symbol>
  <symbol id="icon-qr_code_2" viewBox="0 0 24 24" fill="none" stroke="currentColor" stroke-width="2" stroke-linecap="round" stroke-linejoin="round">
    <rect x="3" y="3" width="7" height="7" rx="1"/>
    <rect x="14" y="3" width="7" height="7" rx="1"/>
    <rect x="3" y="14" width="7" height="7" rx="1"/>
    <path d="M15 15h2v2h-2zM19 15h2v2h-2zM15 19h2v2h-2zM19 19h2v2h-2z"/>
  </symbol>
  <symbol id="icon-qr_code_scanner" viewBox="0 0 24 24" fill="none" stroke="currentColor" stroke-width="2" stroke-linecap="round" stroke-linejoin="round">
    <rect x="3" y="3" width="7" height="7" rx="1"/>
    <rect x="14" y="3" width="7" height="7" rx="1"/>
    <rect x="3" y="14" width="7" height="7" rx="1"/>
    <path d="M15 15h2v2h-2zM19 15h2v2h-2zM15 19h2v2h-2zM19 19h2v2h-2z"/>
  </symbol>
  <symbol id="icon-receipt_long" viewBox="0 0 24 24" fill="none" stroke="currentColor" stroke-width="2" stroke-linecap="round" stroke-linejoin="round">
    <path d="M6 3h12v18l-2-1.5L14 21l-2-1.5L10 21l-2-1.5L6 21V3Z"/>
    <path d="M9 8h6M9 12h6M9 16h4"/>
  </symbol>
  <symbol id="icon-refresh" viewBox="0 0 24 24" fill="none" stroke="currentColor" stroke-width="2" stroke-linecap="round" stroke-linejoin="round">
    <path d="M21 12a9 9 0 1 1-3.3-6.9"/>
    <path d="M21 3v6h-6"/>
  </symbol>
  <symbol id="icon-restart_alt" viewBox="0 0 24 24" fill="none" stroke="currentColor" stroke-width="2" stroke-linecap="round" stroke-linejoin="round">
    <circle cx="12" cy="12" r="3"/>
    <path d="M19.4 15a1.6 1.6 0 0 0 .3 1.8l.1.1a2 2 0 1 1-2.8 2.8l-.1-.1a1.6 1.6 0 0 0-1.8-.3 1.6 1.6 0 0 0-1 1.5V21a2 2 0 1 1-4 0v-.2a1.6 1.6 0 0 0-1-1.5 1.6 1.6 0 0 0-1.8.3l-.1.1a2 2 0 1 1-2.8-2.8l.1-.1a1.6 1.6 0 0 0 .3-1.8 1.6 1.6 0 0 0-1.5-1H3a2 2 0 1 1 0-4h.2a1.6 1.6 0 0 0 1.5-1 1.6 1.6 0 0 0-.3-1.8l-.1-.1a2 2 0 1 1 2.8-2.8l.1.1a1.6 1.6 0 0 0 1.8.3h.1a1.6 1.6 0 0 0 1-1.5V3a2 2 0 1 1 4 0v.2a1.6 1.6 0 0 0 1 1.5h.1a1.6 1.6 0 0 0 1.8-.3l.1-.1a2 2 0 1 1 2.8 2.8l-.1.1a1.6 1.6 0 0 0-.3 1.8v.1a1.6 1.6 0 0 0 1.5 1H21a2 2 0 1 1 0 4h-.2a1.6 1.6 0 0 0-1.5 1Z"/>
  </symbol>
  <symbol id="icon-restaurant" viewBox="0 0 24 24" fill="none" stroke="currentColor" stroke-width="2" stroke-linecap="round" stroke-linejoin="round">
    <path d="M4 3v8M7 3v8M4 7h3M6 11v10"/>
    <path d="M14 3v18M20 3v7c0 2-2 3-3 3h-1"/>
  </symbol>
  <symbol id="icon-restaurant_menu" viewBox="0 0 24 24" fill="none" stroke="currentColor" stroke-width="2" stroke-linecap="round" stroke-linejoin="round">
    <path d="M4 6h16"/>
    <path d="M4 12h16"/>
    <path d="M4 18h16"/>
  </symbol>
  <symbol id="icon-rice_bowl" viewBox="0 0 24 24" fill="none" stroke="currentColor" stroke-width="2" stroke-linecap="round" stroke-linejoin="round">
    <circle cx="12" cy="12" r="9"/>
    <path d="M8 12h8"/>
  </symbol>
  <symbol id="icon-rocket_launch" viewBox="0 0 24 24" fill="none" stroke="currentColor" stroke-width="2" stroke-linecap="round" stroke-linejoin="round">
    <path d="M5 19c1.5-1.5 4.5-1.5 6 0"/>
    <path d="M13 11l4-4a6 6 0 0 0 2-4 6 6 0 0 0-4 2l-4 4"/>
    <path d="M7 13l4-4"/>
    <path d="M5 19v-4l4-4"/>
  </symbol>
  <symbol id="icon-save" viewBox="0 0 24 24" fill="none" stroke="currentColor" stroke-width="2" stroke-linecap="round" stroke-linejoin="round">
    <circle cx="12" cy="12" r="9"/>
    <path d="M8 12h8"/>
  </symbol>
  <symbol id="icon-schedule" viewBox="0 0 24 24" fill="none" stroke="currentColor" stroke-width="2" stroke-linecap="round" stroke-linejoin="round">
    <circle cx="12" cy="12" r="9"/>
    <path d="M12 7v6l4 2"/>
  </symbol>
  <symbol id="icon-search" viewBox="0 0 24 24" fill="none" stroke="currentColor" stroke-width="2" stroke-linecap="round" stroke-linejoin="round">
    <circle cx="11" cy="11" r="7"/>
    <path d="m21 21-4.3-4.3"/>
  </symbol>
  <symbol id="icon-search_off" viewBox="0 0 24 24" fill="none" stroke="currentColor" stroke-width="2" stroke-linecap="round" stroke-linejoin="round">
    <circle cx="12" cy="12" r="9"/>
    <path d="M15 9 9 15"/>
    <path d="m9 9 6 6"/>
  </symbol>
  <symbol id="icon-security" viewBox="0 0 24 24" fill="none" stroke="currentColor" stroke-width="2" stroke-linecap="round" stroke-linejoin="round">
    <rect x="5" y="11" width="14" height="10" rx="2"/>
    <path d="M8 11V8a4 4 0 1 1 8 0v3"/>
  </symbol>
  <symbol id="icon-send" viewBox="0 0 24 24" fill="none" stroke="currentColor" stroke-width="2" stroke-linecap="round" stroke-linejoin="round">
    <path d="m22 2-7 20-4-9-9-4 20-7Z"/>
  </symbol>
  <symbol id="icon-set_meal" viewBox="0 0 24 24" fill="none" stroke="currentColor" stroke-width="2" stroke-linecap="round" stroke-linejoin="round">
    <circle cx="12" cy="12" r="9"/>
    <path d="M8 12h8"/>
  </symbol>
  <symbol id="icon-settings" viewBox="0 0 24 24" fill="none" stroke="currentColor" stroke-width="2" stroke-linecap="round" stroke-linejoin="round">
    <circle cx="12" cy="12" r="3"/>
    <path d="M19.4 15a1.6 1.6 0 0 0 .3 1.8l.1.1a2 2 0 1 1-2.8 2.8l-.1-.1a1.6 1.6 0 0 0-1.8-.3 1.6 1.6 0 0 0-1 1.5V21a2 2 0 1 1-4 0v-.2a1.6 1.6 0 0 0-1-1.5 1.6 1.6 0 0 0-1.8.3l-.1.1a2 2 0 1 1-2.8-2.8l.1-.1a1.6 1.6 0 0 0 .3-1.8 1.6 1.6 0 0 0-1.5-1H3a2 2 0 1 1 0-4h.2a1.6 1.6 0 0 0 1.5-1 1.6 1.6 0 0 0-.3-1.8l-.1-.1a2 2 0 1 1 2.8-2.8l.1.1a1.6 1.6 0 0 0 1.8.3h.1a1.6 1.6 0 0 0 1-1.5V3a2 2 0 1 1 4 0v.2a1.6 1.6 0 0 0 1 1.5h.1a1.6 1.6 0 0 0 1.8-.3l.1-.1a2 2 0 1 1 2.8 2.8l-.1.1a1.6 1.6 0 0 0-.3 1.8v.1a1.6 1.6 0 0 0 1.5 1H21a2 2 0 1 1 0 4h-.2a1.6 1.6 0 0 0-1.5 1Z"/>
  </symbol>
  <symbol id="icon-shield" viewBox="0 0 24 24" fill="none" stroke="currentColor" stroke-width="2" stroke-linecap="round" stroke-linejoin="round">
    <rect x="5" y="11" width="14" height="10" rx="2"/>
    <path d="M8 11V8a4 4 0 1 1 8 0v3"/>
  </symbol>
  <symbol id="icon-shield_person" viewBox="0 0 24 24" fill="none" stroke="currentColor" stroke-width="2" stroke-linecap="round" stroke-linejoin="round">
    <rect x="5" y="11" width="14" height="10" rx="2"/>
    <path d="M8 11V8a4 4 0 1 1 8 0v3"/>
  </symbol>
  <symbol id="icon-shopping_bag" viewBox="0 0 24 24" fill="none" stroke="currentColor" stroke-width="2" stroke-linecap="round" stroke-linejoin="round">
    <path d="M6 8h12l-1 12H7L6 8Z"/>
    <path d="M9 8V6a3 3 0 1 1 6 0v2"/>
  </symbol>
  <symbol id="icon-shopping_cart" viewBox="0 0 24 24" fill="none" stroke="currentColor" stroke-width="2" stroke-linecap="round" stroke-linejoin="round">
    <path d="M3 4h2l2.5 11h10.5l2-8H7"/>
    <circle cx="10" cy="19" r="1"/>
    <circle cx="17" cy="19" r="1"/>
  </symbol>
  <symbol id="icon-signpost" viewBox="0 0 24 24" fill="none" stroke="currentColor" stroke-width="2" stroke-linecap="round" stroke-linejoin="round">
    <circle cx="12" cy="12" r="9"/>
    <path d="M8 12h8"/>
  </symbol>
  <symbol id="icon-soup_kitchen" viewBox="0 0 24 24" fill="none" stroke="currentColor" stroke-width="2" stroke-linecap="round" stroke-linejoin="round">
    <circle cx="12" cy="12" r="9"/>
    <path d="M8 12h8"/>
  </symbol>
  <symbol id="icon-speed" viewBox="0 0 24 24" fill="none" stroke="currentColor" stroke-width="2" stroke-linecap="round" stroke-linejoin="round">
    <path d="M4 19h16"/>
    <path d="M7 16v-6"/>
    <path d="M12 16V8"/>
    <path d="M17 16v-3"/>
  </symbol>
  <symbol id="icon-sports_bar" viewBox="0 0 24 24" fill="none" stroke="currentColor" stroke-width="2" stroke-linecap="round" stroke-linejoin="round">
    <path d="M5 8h11v7a5 5 0 0 1-10 0V8Z"/>
    <path d="M16 9h2a2 2 0 0 1 0 4h-2"/>
    <path d="M7 3h7"/>
  </symbol>
  <symbol id="icon-star" viewBox="0 0 24 24" fill="none" stroke="currentColor" stroke-width="2" stroke-linecap="round" stroke-linejoin="round">
    <path d="m12 3 2.8 5.7 6.2.9-4.5 4.4 1.1 6.2L12 17.3 6.4 20.2l1.1-6.2L3 9.6l6.2-.9L12 3Z"/>
  </symbol>
  <symbol id="icon-store" viewBox="0 0 24 24" fill="none" stroke="currentColor" stroke-width="2" stroke-linecap="round" stroke-linejoin="round">
    <circle cx="12" cy="7" r="4"/>
    <path d="M4 21a8 8 0 0 1 16 0"/>
  </symbol>
  <symbol id="icon-style" viewBox="0 0 24 24" fill="none" stroke="currentColor" stroke-width="2" stroke-linecap="round" stroke-linejoin="round">
    <circle cx="12" cy="12" r="9"/>
    <path d="M8 12h8"/>
  </symbol>
  <symbol id="icon-support" viewBox="0 0 24 24" fill="none" stroke="currentColor" stroke-width="2" stroke-linecap="round" stroke-linejoin="round">
    <path d="M4 5h16v10H8l-4 4V5Z"/>
  </symbol>
  <symbol id="icon-support_agent" viewBox="0 0 24 24" fill="none" stroke="currentColor" stroke-width="2" stroke-linecap="round" stroke-linejoin="round">
    <circle cx="12" cy="7" r="4"/>
    <path d="M4 21a8 8 0 0 1 16 0"/>
  </symbol>
  <symbol id="icon-sync" viewBox="0 0 24 24" fill="none" stroke="currentColor" stroke-width="2" stroke-linecap="round" stroke-linejoin="round">
    <path d="M21 12a9 9 0 1 1-3.3-6.9"/>
    <path d="M21 3v6h-6"/>
  </symbol>
  <symbol id="icon-table" viewBox="0 0 24 24" fill="none" stroke="currentColor" stroke-width="2" stroke-linecap="round" stroke-linejoin="round">
    <rect x="3" y="4" width="18" height="16" rx="2"/>
    <path d="M3 10h18M9 4v16M15 4v16"/>
  </symbol>
  <symbol id="icon-table_chart" viewBox="0 0 24 24" fill="none" stroke="currentColor" stroke-width="2" stroke-linecap="round" stroke-linejoin="round">
    <rect x="3" y="4" width="18" height="16" rx="2"/>
    <path d="M3 10h18M9 4v16M15 4v16"/>
  </symbol>
  <symbol id="icon-table_restaurant" viewBox="0 0 24 24" fill="none" stroke="currentColor" stroke-width="2" stroke-linecap="round" stroke-linejoin="round">
    <rect x="3" y="4" width="18" height="16" rx="2"/>
    <path d="M3 10h18M9 4v16M15 4v16"/>
  </symbol>
  <symbol id="icon-table_view" viewBox="0 0 24 24" fill="none" stroke="currentColor" stroke-width="2" stroke-linecap="round" stroke-linejoin="round">
    <rect x="3" y="4" width="18" height="16" rx="2"/>
    <path d="M3 10h18M9 4v16M15 4v16"/>
  </symbol>
  <symbol id="icon-tapas" viewBox="0 0 24 24" fill="none" stroke="currentColor" stroke-width="2" stroke-linecap="round" stroke-linejoin="round">
    <circle cx="12" cy="12" r="9"/>
    <path d="M8 12h8"/>
  </symbol>
  <symbol id="icon-timer" viewBox="0 0 24 24" fill="none" stroke="currentColor" stroke-width="2" stroke-linecap="round" stroke-linejoin="round">
    <circle cx="12" cy="12" r="9"/>
    <path d="M12 7v6l4 2"/>
  </symbol>
  <symbol id="icon-timer_off" viewBox="0 0 24 24" fill="none" stroke="currentColor" stroke-width="2" stroke-linecap="round" stroke-linejoin="round">
    <circle cx="12" cy="12" r="9"/>
    <path d="M15 9 9 15"/>
    <path d="m9 9 6 6"/>
  </symbol>
  <symbol id="icon-trending_up" viewBox="0 0 24 24" fill="none" stroke="currentColor" stroke-width="2" stroke-linecap="round" stroke-linejoin="round">
    <path d="M4 19h16"/>
    <path d="M7 16v-6"/>
    <path d="M12 16V8"/>
    <path d="M17 16v-3"/>
  </symbol>
  <symbol id="icon-update" viewBox="0 0 24 24" fill="none" stroke="currentColor" stroke-width="2" stroke-linecap="round" stroke-linejoin="round">
    <path d="M21 12a9 9 0 1 1-3.3-6.9"/>
    <path d="M21 3v6h-6"/>
  </symbol>
  <symbol id="icon-upgrade" viewBox="0 0 24 24" fill="none" stroke="currentColor" stroke-width="2" stroke-linecap="round" stroke-linejoin="round">
    <circle cx="12" cy="12" r="9"/>
    <path d="M8 12h8"/>
  </symbol>
  <symbol id="icon-upload" viewBox="0 0 24 24" fill="none" stroke="currentColor" stroke-width="2" stroke-linecap="round" stroke-linejoin="round">
    <path d="M12 16V5"/>
    <path d="m7 10 5-5 5 5"/>
    <path d="M4 19h16"/>
  </symbol>
  <symbol id="icon-upload_file" viewBox="0 0 24 24" fill="none" stroke="currentColor" stroke-width="2" stroke-linecap="round" stroke-linejoin="round">
    <path d="M12 16V5"/>
    <path d="m7 10 5-5 5 5"/>
    <path d="M4 19h16"/>
  </symbol>
  <symbol id="icon-verified" viewBox="0 0 24 24" fill="none" stroke="currentColor" stroke-width="2" stroke-linecap="round" stroke-linejoin="round">
    <path d="m20 6-11 11-5-5"/>
  </symbol>
  <symbol id="icon-view_agenda" viewBox="0 0 24 24" fill="none" stroke="currentColor" stroke-width="2" stroke-linecap="round" stroke-linejoin="round">
    <rect x="3" y="3" width="8" height="8" rx="1"/>
    <rect x="13" y="3" width="8" height="8" rx="1"/>
    <rect x="3" y="13" width="8" height="8" rx="1"/>
    <rect x="13" y="13" width="8" height="8" rx="1"/>
  </symbol>
  <symbol id="icon-visibility" viewBox="0 0 24 24" fill="none" stroke="currentColor" stroke-width="2" stroke-linecap="round" stroke-linejoin="round">
    <path d="M2 12s3.5-6 10-6 10 6 10 6-3.5 6-10 6S2 12 2 12Z"/>
    <circle cx="12" cy="12" r="3"/>
  </symbol>
  <symbol id="icon-warning" viewBox="0 0 24 24" fill="none" stroke="currentColor" stroke-width="2" stroke-linecap="round" stroke-linejoin="round">
    <path d="M12 3 2 21h20L12 3Z"/>
    <path d="M12 9v5"/>
    <path d="M12 17h.01"/>
  </symbol>
  <symbol id="icon-webhook" viewBox="0 0 24 24" fill="none" stroke="currentColor" stroke-width="2" stroke-linecap="round" stroke-linejoin="round">
    <path d="M10 13a5 5 0 0 0 7 0l2-2a5 5 0 0 0-7-7l-1.5 1.5"/>
    <path d="M14 11a5 5 0 0 0-7 0l-2 2a5 5 0 0 0 7 7L13.5 19"/>
  </symbol>
  <symbol id="icon-wifi_tethering" viewBox="0 0 24 24" fill="none" stroke="currentColor" stroke-width="2" stroke-linecap="round" stroke-linejoin="round">
    <path d="M2 8a15 15 0 0 1 20 0"/>
    <path d="M5 12a10 10 0 0 1 14 0"/>
    <path d="M8.5 15.5a5 5 0 0 1 7 0"/>
    <circle cx="12" cy="19" r="1"/>
  </symbol>
  <symbol id="icon-wine_bar" viewBox="0 0 24 24" fill="none" stroke="currentColor" stroke-width="2" stroke-linecap="round" stroke-linejoin="round">
    <path d="M5 8h11v7a5 5 0 0 1-10 0V8Z"/>
    <path d="M16 9h2a2 2 0 0 1 0 4h-2"/>
    <path d="M7 3h7"/>
  </symbol>
  <symbol id="icon-workspace_premium" viewBox="0 0 24 24" fill="none" stroke="currentColor" stroke-width="2" stroke-linecap="round" stroke-linejoin="round">
    <circle cx="12" cy="12" r="9"/>
    <path d="m9 12 2 2 4-4"/>
  </symbol>
</svg>
